<?xml version="1.0" standalone="no"?><!DOCTYPE svg PUBLIC "-//W3C//DTD SVG 1.1//EN" "http://www.w3.org/Graphics/SVG/1.1/DTD/svg11.dtd"><svg width="100%" height="100%" viewBox="0 0 512 126" version="1.1" xmlns="http://www.w3.org/2000/svg" xmlns:xlink="http://www.w3.org/1999/xlink" xml:space="preserve" style="fill-rule:evenodd;clip-rule:evenodd;stroke-linecap:round;stroke-linejoin:round;stroke-miterlimit:1.41421;"><g><path d="M26.412,124.612l12.408,0l0,-38.657l15.781,38.657l12.769,0l0,-66.114l-12.408,0l0,34.693l-14.576,-34.693l-13.974,0l0,66.114Z" style="fill:#fcf36f;fill-rule:nonzero;"/><path d="M100.109,124.651l36.14,0l0,-10.21l-23.732,0l0,-18.238l13.733,0l0,-10.21l-13.733,0l0,-17.247l22.527,0l0,-10.209l-34.935,0l0,66.114Z" style="fill:#fcf36f;fill-rule:nonzero;"/><path d="M474.919,124.651l36.139,0l0,-10.21l-23.731,0l0,-18.238l13.733,0l0,-10.21l-13.733,0l0,-17.247l22.527,0l0,-10.209l-34.935,0l0,66.114Z" style="fill:#fcf36f;fill-rule:nonzero;"/><path d="M189.38,57.705c-5.18,0 -10.48,1.586 -13.251,3.866c-6.144,5.154 -8.312,13.084 -8.312,29.935c0,17.049 2.168,24.879 8.312,30.034c2.771,2.379 8.192,3.865 13.974,3.865c5.782,0 11.564,-1.586 14.335,-3.865c6.264,-5.056 8.312,-12.886 8.312,-31.026c0,-24.582 -5.782,-32.809 -23.37,-32.809ZM189.982,67.915c3.012,0 6.024,1.189 7.228,2.874c2.048,2.776 3.132,10.408 3.132,21.212c0,10.012 -1.204,17.545 -3.132,20.32c-1.204,1.685 -4.096,2.875 -6.987,2.875c-3.011,0 -5.661,-1.19 -6.866,-2.875c-2.048,-2.973 -3.132,-10.308 -3.132,-20.815c0,-10.408 1.084,-17.644 3.132,-20.717c1.084,-1.685 3.734,-2.874 6.625,-2.874Z" style="fill:#fcf36f;fill-rule:nonzero;"/><path d="M246.75,124.607l12.407,0l0,-38.657l15.781,38.657l12.77,0l0,-66.114l-12.408,0l0,34.693l-14.576,-34.693l-13.974,0l0,66.114Z" style="fill:#fcf36f;fill-rule:nonzero;"/><path d="M344.094,56.951c-5.18,0 -10.48,1.586 -13.251,3.866c-6.144,5.154 -8.312,13.084 -8.312,29.934c0,17.049 2.168,24.88 8.312,30.034c2.771,2.379 8.191,3.866 13.974,3.866c5.782,0 11.564,-1.586 14.335,-3.866c6.264,-5.055 8.312,-12.886 8.312,-31.025c0,-24.582 -5.782,-32.809 -23.37,-32.809ZM344.696,67.16c3.012,0 6.023,1.19 7.228,2.875c2.048,2.775 3.132,10.408 3.132,21.212c0,10.011 -1.204,17.544 -3.132,20.32c-1.205,1.685 -4.096,2.874 -6.987,2.874c-3.011,0 -5.662,-1.189 -6.866,-2.874c-2.048,-2.974 -3.132,-10.309 -3.132,-20.816c0,-10.407 1.084,-17.643 3.132,-20.716c1.084,-1.685 3.734,-2.875 6.625,-2.875Z" style="fill:#fcf36f;fill-rule:nonzero;"/><path d="M401.32,124.651l19.274,0c2.891,0 4.939,-0.198 6.626,-0.496c5.059,-1.09 9.396,-4.262 11.926,-8.821c2.047,-3.47 3.011,-11.399 3.011,-23.79c0,-7.731 -0.482,-14.372 -1.445,-19.428c-0.603,-3.568 -2.892,-7.037 -6.265,-9.813c-3.493,-2.775 -7.227,-3.766 -13.853,-3.766l-19.274,0l0,66.114ZM413.728,114.441l0,-45.695l5.3,0c5.421,0 7.71,0.991 8.914,3.866c1.085,2.181 1.807,10.408 1.807,18.932c0,6.84 -0.482,12.688 -1.204,17.446c-0.362,1.487 -1.084,2.775 -2.169,3.766c-1.445,1.19 -3.373,1.685 -7.348,1.685l-5.3,0Z" style="fill:#fcf36f;fill-rule:nonzero;"/><path d="M24.01,120.263l12.407,0l0,-38.658l15.781,38.658l12.77,0l0,-66.114l-12.408,0l0,34.692l-14.577,-34.692l-13.973,0l0,66.114Z" style="fill:#7ec5ed;fill-rule:nonzero;"/><path d="M97.707,120.302l36.139,0l0,-10.21l-23.732,0l0,-18.238l13.733,0l0,-10.21l-13.733,0l0,-17.247l22.527,0l0,-10.21l-34.934,0l0,66.115Z" style="fill:#7ec5ed;fill-rule:nonzero;"/><path d="M472.516,120.302l36.14,0l0,-10.21l-23.732,0l0,-18.238l13.733,0l0,-10.21l-13.733,0l0,-17.247l22.527,0l0,-10.21l-34.935,0l0,66.115Z" style="fill:#7ec5ed;fill-rule:nonzero;"/><path d="M186.977,53.356c-5.18,0 -10.48,1.586 -13.251,3.865c-6.143,5.155 -8.312,13.085 -8.312,29.935c0,17.049 2.169,24.88 8.312,30.034c2.771,2.379 8.192,3.866 13.974,3.866c5.782,0 11.565,-1.586 14.335,-3.866c6.265,-5.055 8.312,-12.886 8.312,-31.025c0,-24.582 -5.782,-32.809 -23.37,-32.809ZM187.58,63.565c3.011,0 6.023,1.19 7.228,2.875c2.047,2.775 3.132,10.408 3.132,21.212c0,10.011 -1.205,17.544 -3.132,20.32c-1.205,1.685 -4.096,2.874 -6.987,2.874c-3.012,0 -5.662,-1.189 -6.867,-2.874c-2.048,-2.974 -3.132,-10.309 -3.132,-20.816c0,-10.408 1.084,-17.643 3.132,-20.716c1.084,-1.685 3.735,-2.875 6.626,-2.875Z" style="fill:#7ec5ed;fill-rule:nonzero;"/><path d="M243.096,119.977l12.408,0l0,-38.658l15.781,38.658l12.769,0l0,-66.114l-12.408,0l0,34.692l-14.576,-34.692l-13.974,0l0,66.114Z" style="fill:#7ec5ed;fill-rule:nonzero;"/><path d="M339.991,54.203c-5.18,0 -10.48,1.586 -13.251,3.865c-6.144,5.155 -8.312,13.084 -8.312,29.935c0,17.049 2.168,24.88 8.312,30.034c2.771,2.379 8.192,3.866 13.974,3.866c5.782,0 11.564,-1.586 14.335,-3.866c6.264,-5.055 8.312,-12.886 8.312,-31.025c0,-24.582 -5.782,-32.809 -23.37,-32.809ZM340.593,64.412c3.012,0 6.024,1.19 7.228,2.875c2.048,2.775 3.132,10.407 3.132,21.212c0,10.011 -1.204,17.544 -3.132,20.32c-1.204,1.685 -4.096,2.874 -6.987,2.874c-3.011,0 -5.661,-1.189 -6.866,-2.874c-2.048,-2.974 -3.132,-10.309 -3.132,-20.816c0,-10.408 1.084,-17.644 3.132,-20.716c1.084,-1.685 3.734,-2.875 6.625,-2.875Z" style="fill:#7ec5ed;fill-rule:nonzero;"/><path d="M397.666,120.02l19.275,0c2.891,0 4.939,-0.198 6.625,-0.495c5.06,-1.091 9.397,-4.262 11.926,-8.822c2.048,-3.469 3.012,-11.399 3.012,-23.789c0,-7.732 -0.482,-14.373 -1.446,-19.428c-0.602,-3.569 -2.891,-7.038 -6.264,-9.813c-3.493,-2.776 -7.228,-3.767 -13.853,-3.767l-19.275,0l0,66.114ZM410.074,109.811l0,-45.695l5.301,0c5.421,0 7.709,0.991 8.914,3.865c1.084,2.181 1.807,10.408 1.807,18.933c0,6.839 -0.482,12.687 -1.205,17.445c-0.361,1.487 -1.084,2.776 -2.168,3.767c-1.445,1.189 -3.373,1.685 -7.348,1.685l-5.301,0Z" style="fill:#7ec5ed;fill-rule:nonzero;"/><path d="M3.299,27.568l0,-2.242l30.303,-17.495l30.302,17.495l0,34.991l-1.566,0.904l0,2.243l-30.303,17.495l-30.303,-17.495l0,-34.991l1.567,-0.905Z" style="fill:#fff;"/><path d="M32.035,4.879l-30.303,17.495l0,34.991l30.303,17.495l30.303,-17.495l0,-34.991l-30.303,-17.495Z" style="fill:none;stroke-width:2px;stroke:#7ec5ed;stroke-opacity:0.8;"/><path d="M33.602,1.732l-30.303,17.495l0,34.991l30.303,17.495l30.302,-17.495l0,-34.991l-30.302,-17.495Z" style="fill:none;stroke-width:2px;stroke:#f0566d;stroke-opacity:0.8;"/><path d="M16.062,52.889l4.021,0l0,-15.225l5.114,15.225l4.138,0l0,-26.039l-4.021,0l0,13.664l-4.724,-13.664l-4.528,0l0,26.039Z" style="fill:#7ec5ed;fill-opacity:0.796079;fill-rule:nonzero;"/><path d="M36.296,52.889l11.712,0l0,-4.021l-7.691,0l0,-7.183l4.451,0l0,-4.021l-4.451,0l0,-6.793l7.301,0l0,-4.021l-11.322,0l0,26.039Z" style="fill:#7ec5ed;fill-opacity:0.796079;fill-rule:nonzero;"/><path d="M17.629,49.742l4.021,0l0,-15.225l5.114,15.225l4.138,0l0,-26.039l-4.021,0l0,13.664l-4.724,-13.664l-4.528,0l0,26.039Z" style="fill:#f0566d;fill-opacity:0.796079;fill-rule:nonzero;"/><path d="M37.863,49.742l11.712,0l0,-4.021l-7.691,0l0,-7.183l4.451,0l0,-4.021l-4.451,0l0,-6.793l7.3,0l0,-4.021l-11.321,0l0,26.039Z" style="fill:#f0566d;fill-opacity:0.796079;fill-rule:nonzero;"/></g></svg>